<?xml version="1.0" encoding="UTF-8" standalone="no"?>
<svg
   xmlns:dc="http://purl.org/dc/elements/1.1/"
   xmlns:cc="http://creativecommons.org/ns#"
   xmlns:rdf="http://www.w3.org/1999/02/22-rdf-syntax-ns#"
   xmlns:svg="http://www.w3.org/2000/svg"
   xmlns="http://www.w3.org/2000/svg"
   xmlns:sodipodi="http://sodipodi.sourceforge.net/DTD/sodipodi-0.dtd"
   xmlns:inkscape="http://www.inkscape.org/namespaces/inkscape"
   width="111"
   height="22"
   version="1.1"
   id="svg208"
   sodipodi:docname="allama-logo-white.svg"
   inkscape:version="1.0.1 (c497b03c, 2020-09-10)">
  <metadata
     id="metadata212">
    <rdf:RDF>
      <cc:Work
         rdf:about="">
        <dc:format>image/svg+xml</dc:format>
        <dc:type
           rdf:resource="http://purl.org/dc/dcmitype/StillImage" />
        <dc:title></dc:title>
      </cc:Work>
    </rdf:RDF>
  </metadata>
  <sodipodi:namedview
     pagecolor="#ffffff"
     bordercolor="#666666"
     borderopacity="1"
     objecttolerance="10"
     gridtolerance="10"
     guidetolerance="10"
     inkscape:pageopacity="0"
     inkscape:pageshadow="2"
     inkscape:window-width="1658"
     inkscape:window-height="944"
     id="namedview210"
     showgrid="false"
     inkscape:zoom="9.8738739"
     inkscape:cx="62.376828"
     inkscape:cy="12.663722"
     inkscape:window-x="1462"
     inkscape:window-y="37"
     inkscape:window-maximized="0"
     inkscape:current-layer="g206"
     inkscape:document-rotation="0" />
  <defs
     id="defs188">
    <radialGradient
       id="radialGradient-1"
       gradientTransform="scale(1.0405293,0.96104933)"
       r="12.703601"
       fy="12.354463"
       fx="11.390856"
       cy="12.354463"
       cx="11.390856"
       gradientUnits="userSpaceOnUse">
      <stop
         offset="0%"
         stop-color="#FFB900"
         id="stop181" />
      <stop
         offset="74.7090242%"
         stop-color="#FA5C86"
         id="stop183" />
      <stop
         offset="100%"
         stop-color="#F95353"
         id="stop185" />
    </radialGradient>
    <filter
       inkscape:collect="always"
       style="color-interpolation-filters:sRGB"
       id="filter1077"
       x="-8.1579343e-05"
       width="1.0001632"
       y="-0.0001158313"
       height="1.0002317">
      <feGaussianBlur
         inkscape:collect="always"
         stdDeviation="0.00063727419"
         id="feGaussianBlur1079" />
    </filter>
  </defs>
  <g
     id="g193">
    <title
       id="title190">background</title>
    <rect
       fill="none"
       id="canvas_background"
       height="602"
       width="802"
       y="-1"
       x="-1" />
  </g>
  <g
     id="g206"
     transform="translate(0.10127737,0.10127737)">
    <title
       id="title195">Layer 1</title>
    <g
       id="svg_1"
       fill-rule="evenodd"
       fill="none"
       transform="translate(0.70894158,0.20255474)">
      <g
         id="dots-wrapper"
         transform="rotate(178.77624,11.701686,10.844275)"
         inkscape:transform-center-x="-0.20255474"
         inkscape:transform-center-y="0.50638686">
        <path
           fill="url(#radialGradient-1)"
           id="dots"
           d="m 17.00788,5.15144 c 0,2.84533 -2.30806,5.15201 -5.1553,5.15201 -2.84736,0 -5.15543,-2.30668 -5.15543,-5.15201 C 6.69715,2.30668 9.00522,0 11.85258,0 c 2.84724,0 5.1553,2.30668 5.1553,5.15144 z M 5.15542,11.59148 C 2.30818,11.59148 0,13.89747 0,16.7428 c 0,2.84511 2.30818,5.15155 5.15542,5.15155 2.84736,0 5.15565,-2.30644 5.15565,-5.15155 0,-2.84533 -2.30829,-5.15132 -5.15565,-5.15132 z m 13.39419,-4.6e-4 c -2.84724,0 -5.15542,2.30645 -5.15542,5.15178 0,2.84511 2.30818,5.15155 5.15542,5.15155 2.84725,0 5.15543,-2.30644 5.15543,-5.15155 0,-2.84533 -2.30818,-5.15178 -5.15543,-5.15178 z"
           style="fill:url(#radialGradient-1)" />
      </g>
      <g
         fill="#273347"
         id="Text"
         transform="translate(-2.9370438,1.3166058)">
        <path
           id="Fill-1"
           d="m 39.617368,16.479205 c 0.06722,0.76425 0.67896,1.73703 1.73881,1.73703 h 0.62012 c 0.24039,0 0.4374,-0.1969 0.4374,-0.43731 V 4.1509553 h -0.0027 c -0.01253,-0.22959 -0.20234,-0.41347 -0.4347,-0.41347 h -1.92152 c -0.23237,0 -0.42217,0.18388 -0.43508,0.41347 h -0.0023 v 1.10735 c -1.17734,-1.4501 -3.0335,-2.05199 -4.89489,-2.05199 -4.23089,0 -7.66071,3.42988 -7.66071,7.6610997 0,4.23146 3.42982,7.66145 7.66071,7.66145 v 3.5e-4 c 1.86139,0 3.88991,-0.72214 4.89463,-2.05176 l 2.3e-4,0.0018 z m -4.8873,-0.63166 c -2.69084,0 -4.87229,-2.22948 -4.87229,-4.98013 0,-2.7501797 2.18145,-4.9797697 4.87229,-4.9797697 2.69073,0 4.87195,2.22959 4.87195,4.9797697 0,2.75065 -2.18122,4.98013 -4.87195,4.98013 z" />
        <path
           id="Fill-2"
           d="m 73.860552,16.68176 c 0.06722,0.76425 0.67896,1.73703 1.73881,1.73703 h 0.62011 c 0.24039,0 0.43717,-0.1969 0.43717,-0.43731 V 4.35351 h -0.0024 c -0.0126,-0.22959 -0.20263,-0.41347 -0.43477,-0.41347 h -1.92152 c -0.23237,0 -0.42217,0.18388 -0.43519,0.41347 h -0.0022 v 1.10735 c -1.17743,-1.4501 -3.03359,-2.05199 -4.89498,-2.05199 -4.2309,0 -7.6606,3.42988 -7.6606,7.6611 0,4.23146 3.4297,7.66145 7.6606,7.66145 v 3.5e-4 c 1.86139,0 3.89002,-0.72214 4.89474,-2.05176 l 2.4e-4,0.0018 z m -4.88753,-0.63166 c -2.69062,0 -4.87218,-2.22948 -4.87218,-4.98013 0,-2.75018 2.18156,-4.97977 4.87218,-4.97977 2.69096,0 4.87206,2.22959 4.87206,4.97977 0,2.75065 -2.1811,4.98013 -4.87206,4.98013 z" />
        <path
           id="Fill-3"
           d="m 110.37652,16.68176 c 0.0672,0.76425 0.67897,1.73703 1.73881,1.73703 h 0.62012 c 0.24039,0 0.43752,-0.1969 0.43752,-0.43731 V 4.35351 h -0.003 c -0.0126,-0.22959 -0.20236,-0.41347 -0.43473,-0.41347 h -1.92152 c -0.23237,0 -0.42217,0.18388 -0.43496,0.41347 h -0.002 v 1.10735 c -1.17719,-1.4501 -3.03335,-2.05199 -4.89474,-2.05199 -4.23113,0 -7.660828,3.42988 -7.660828,7.6611 0,4.23146 3.429698,7.66145 7.660828,7.66145 v 3.5e-4 c 1.86139,0 3.88979,-0.72214 4.89451,-2.05176 l 2.3e-4,0.0018 z m -4.88729,-0.63166 c -2.69085,0 -4.87242,-2.22948 -4.87242,-4.98013 0,-2.75018 2.18157,-4.97977 4.87242,-4.97977 2.69073,0 4.87206,2.22959 4.87206,4.97977 0,2.75065 -2.18133,4.98013 -4.87206,4.98013 z" />
      </g>
    </g>
    <text
       xml:space="preserve"
       style="font-style:normal;font-weight:normal;font-size:40px;line-height:1.25;font-family:sans-serif;white-space:pre;inline-size:24.1063;fill:#ffffff;fill-opacity:1;stroke:none;"
       x="50.031021"
       y="9.1149635"
       id="text216"
       transform="matrix(0.74664541,0,0,0.66505449,4.6937502,13.910822)"><tspan
         x="50.031021"
         y="9.1149635"><tspan
           style="font-style:normal;font-variant:normal;font-weight:500;font-stretch:normal;font-size:40px;font-family:'Kohinoor Telugu';-inkscape-font-specification:'Kohinoor Telugu, Medium';font-variant-ligatures:normal;font-variant-caps:normal;font-variant-numeric:normal;font-variant-east-asian:normal;fill:#ffffff;fill-opacity:1">ll</tspan></tspan></text>
    <g
       aria-label="m"
       transform="matrix(1.3391124,0.01187728,-0.00982218,1.1074083,-48.778652,0.53666062)"
       id="text1043"
       style="font-style:normal;font-weight:normal;font-size:23.55590000000000117px;line-height:1.25;font-family:sans-serif;fill:#ffffff;fill-opacity:1;stroke:none;stroke-width:0.589;stroke-miterlimit:4;stroke-dasharray:none;filter:url(#filter1077)">
      <path
         d="m 99.473638,7.690476 c 0,-1.1348546 -0.111185,-1.8019651 -0.333555,-2.0013314 -0.22237,-0.1993663 -0.421736,-0.2990495 -0.598099,-0.2990495 -0.391065,0 -0.813472,0.249776 -1.265881,0.9322223 -1.282077,1.8908565 -0.945264,1.6488494 -1.351665,2.7146925 l 0.07559,7.4179181 c 0,0 -0.429134,0.368746 -1.274506,-0.64662 -0.845338,-1.015365 -0.56279,-5.8233234 -0.56279,-5.8233234 l -0.03815,-6.4691319 h 0.937405 0.937405 L 95.84479,6.0047264 C 97.116807,4.152431 96.610723,4.627843 97.116807,4.152431 c 0.513752,-0.4754121 0.954371,-0.8952015 1.475791,-0.8952015 0.621101,0 1.043221,0.1547379 1.418952,0.6454858 0.38339,0.48308 0.49544,1.5224707 0.49544,1.5224707 l 0.15595,1.3286225 c 0,0 0.85841,-1.4179785 1.21115,-1.9010585 0.36038,-0.490748 0.80725,-0.9702371 1.19064,-1.2539507 0.38339,-0.2913816 0.44685,-0.3415698 0.94527,-0.3415698 0.55209,0 0.79544,0.053411 1.56597,0.6999941 0.45191,0.3792086 1.04036,1.3945318 1.04036,2.7900962 v 9.7076082 c 0,0 -0.77784,0.04786 -1.42644,-0.736444 -0.6486,-0.784306 -0.44837,-3.651533 -0.44837,-3.651533 V 7.6789741 c 0,-0.720786 -0.023,-1.2115339 -0.069,-1.4722438 -0.046,-0.2683777 -0.13802,-0.471578 -0.27606,-0.6096009 -0.13802,-0.1380229 -0.28754,-0.2070343 -0.44856,-0.2070343 -0.39874,0 -0.82815,0.3067175 -1.28822,0.9201524 -0.45242,0.6057669 -0.91633,1.6141006 -1.39174,3.0250009 v 7.1196796 c 0,0 -0.63108,0.126344 -1.269631,-0.645808 -0.638547,-0.772156 -0.524671,-3.736418 -0.524671,-3.736418 V 7.690476"
         style="font-style:normal;font-variant:normal;font-weight:normal;font-stretch:normal;font-family:Monaco;-inkscape-font-specification:Monaco;fill:#ffffff;fill-opacity:1;stroke-width:0.589;stroke-miterlimit:4;stroke-dasharray:none"
         id="path1081"
         sodipodi:nodetypes="cssccczccccccscscccsssczcscssccczcc" />
    </g>
    <path
       style="fill:#ffffff;fill-opacity:1;stroke-width:0.0596524"
       d="m 64.983846,20.055746 c -1.458738,-0.38223 -2.666462,-1.108483 -3.689814,-2.218836 -0.788405,-0.855432 -1.247193,-1.607589 -1.61562,-2.648722 -0.88659,-2.505397 -0.393151,-5.2273217 1.334366,-7.3606813 0.919834,-1.1359291 2.449264,-2.1119098 3.946623,-2.5184739 0.898051,-0.2438395 2.845839,-0.2471239 3.739946,-0.00631 0.934579,0.2517179 1.825672,0.7196039 2.478296,1.3012791 l 0.567342,0.505663 V 6.567077 c 0,-0.3271736 0.06259,-0.6319559 0.157659,-0.7676812 0.145688,-0.2079995 0.237414,-0.2250896 1.208095,-0.2250896 0.819904,0 1.085362,0.034928 1.209585,0.1591502 0.141571,0.1415718 0.15915,0.9223694 0.15915,7.0691606 0,5.239416 -0.02938,6.939393 -0.121533,7.031543 -0.06819,0.06819 -0.395029,0.121533 -0.744603,0.121533 -0.479298,0 -0.702477,-0.05307 -0.967199,-0.229988 -0.305408,-0.20411 -0.694632,-0.811191 -0.842453,-1.313991 -0.0431,-0.146614 -0.128862,-0.101991 -0.503211,0.261835 -0.58317,0.566775 -1.670267,1.134267 -2.655538,1.386257 -1.035457,0.264825 -2.641718,0.263044 -3.661091,-0.0041 z m 3.009753,-2.486039 c 2.176094,-0.494943 3.751386,-2.534588 3.751386,-4.857195 0,-1.369524 -0.463908,-2.536522 -1.397342,-3.5151309 -1.057281,-1.1084486 -2.162446,-1.54361 -3.757543,-1.4795424 -0.869156,0.03491 -1.059432,0.079366 -1.756446,0.4103765 -2.648416,1.2577271 -3.666015,4.3874908 -2.277596,7.0050528 1.039472,1.959697 3.226019,2.939439 5.437541,2.436439 z"
       id="path1054"
       transform="translate(-0.10127737,-0.10127737)" />
    <path
       style="fill:#ffffff;fill-opacity:1;stroke-width:0.0596524"
       d="M 30.738989,19.849863 C 29.236548,19.456395 28.128377,18.783959 27.01153,17.588051 25.05292,15.49079 24.476226,12.538867 25.495808,9.8295267 c 1.178143,-3.1306831 4.339066,-5.1767247 7.61186,-4.9270993 1.581915,0.1206572 2.845358,0.6140965 3.838224,1.4990234 l 0.567341,0.5056629 V 6.3070454 c 0,-0.8614386 0.110022,-0.9352939 1.393304,-0.9352939 0.794859,0 1.058363,0.035478 1.182035,0.1591502 0.141572,0.1415718 0.15915,0.9223694 0.15915,7.0691603 0,5.239416 -0.02938,6.939393 -0.121533,7.031543 -0.171776,0.171777 -1.248655,0.151399 -1.599976,-0.03028 -0.366498,-0.189524 -0.747022,-0.690741 -0.909702,-1.198237 l -0.124347,-0.387913 -0.458092,0.458093 c -0.579606,0.579605 -1.616336,1.127059 -2.620887,1.383979 -1.041471,0.266364 -2.641172,0.263147 -3.674196,-0.0074 z m 2.844761,-2.436746 c 2.726482,-0.568574 4.435726,-3.349086 3.776793,-6.143899 C 36.966705,9.5987846 35.668494,8.1908882 34.060591,7.6904524 32.785018,7.2934495 31.117826,7.5015222 30.044216,8.1917131 c -2.72442,1.751445 -3.15312,5.5899399 -0.879303,7.8730919 1.180726,1.185573 2.812148,1.683365 4.418837,1.348312 z"
       id="path1056"
       transform="translate(-0.10127737,-0.10127737)" />
    <path
       style="fill:#ffffff;fill-opacity:1;stroke-width:0.0596524"
       d="m 102.02692,20.196207 c -2.344662,-0.446061 -4.493461,-2.091705 -5.510687,-4.220326 -0.560479,-1.172844 -0.711661,-1.875391 -0.712747,-3.312159 -0.0011,-1.469569 0.190123,-2.244051 0.887763,-3.5953464 0.49258,-0.9541053 1.794483,-2.3261558 2.724862,-2.8716807 2.775729,-1.6275379 6.358919,-1.4348012 8.323629,0.4477203 0.25776,0.2469784 0.49064,0.4490516 0.51752,0.4490516 0.0269,0 0.0489,-0.2946328 0.0489,-0.6547395 0,-0.8256531 0.063,-0.8644211 1.40548,-0.8644211 0.93271,0 1.02628,0.017982 1.17135,0.2250896 0.13887,0.1982737 0.15766,1.0315973 0.15766,6.9947972 0,4.472853 -0.0356,6.836172 -0.10484,6.965603 -0.16116,0.30112 -1.26074,0.279214 -1.72609,-0.03439 -0.39971,-0.269368 -0.79334,-0.816857 -0.87326,-1.214618 l -0.0563,-0.280212 -0.46955,0.439208 c -0.60353,0.564532 -1.24904,0.939681 -2.16474,1.258083 -0.60741,0.211204 -0.95735,0.259977 -2.04911,0.285602 -0.72413,0.017 -1.43054,0.0092 -1.5698,-0.01726 z m 2.2396,-2.569771 c 1.24867,-0.231534 2.64798,-1.20952 3.28439,-2.295467 1.52373,-2.600048 0.53727,-5.9230775 -2.13504,-7.1921497 -0.68559,-0.3255835 -0.89008,-0.3737013 -1.76783,-0.4159678 -0.81659,-0.039321 -1.11777,-0.00976 -1.69879,0.166714 -1.64916,0.5009181 -2.977471,1.912459 -3.35963,3.5701485 -0.156306,0.678007 -0.128049,2.009174 0.0558,2.628829 0.74274,2.503341 3.12256,4.001185 5.6211,3.537893 z"
       id="path1058"
       transform="translate(-0.10127737,-0.10127737)" />
  </g>
</svg>
