<?xml version="1.0" encoding="UTF-8" standalone="no"?>
<svg
   xmlns:dc="http://purl.org/dc/elements/1.1/"
   xmlns:cc="http://creativecommons.org/ns#"
   xmlns:rdf="http://www.w3.org/1999/02/22-rdf-syntax-ns#"
   xmlns:svg="http://www.w3.org/2000/svg"
   xmlns="http://www.w3.org/2000/svg"
   xmlns:sodipodi="http://sodipodi.sourceforge.net/DTD/sodipodi-0.dtd"
   xmlns:inkscape="http://www.inkscape.org/namespaces/inkscape"
   width="32"
   height="32"
   viewBox="0 0 32 32"
   fill="none"
   version="1.1"
   id="svg14"
   sodipodi:docname="icon-linkedin-small-white.svg"
   inkscape:version="1.0.1 (c497b03c, 2020-09-10)">
  <metadata
     id="metadata20">
    <rdf:RDF>
      <cc:Work
         rdf:about="">
        <dc:format>image/svg+xml</dc:format>
        <dc:type
           rdf:resource="http://purl.org/dc/dcmitype/StillImage" />
        <dc:title></dc:title>
      </cc:Work>
    </rdf:RDF>
  </metadata>
  <defs
     id="defs18" />
  <sodipodi:namedview
     pagecolor="#ffffff"
     bordercolor="#666666"
     borderopacity="1"
     objecttolerance="10"
     gridtolerance="10"
     guidetolerance="10"
     inkscape:pageopacity="0"
     inkscape:pageshadow="2"
     inkscape:window-width="1392"
     inkscape:window-height="901"
     id="namedview16"
     showgrid="false"
     inkscape:zoom="20.90625"
     inkscape:cx="16"
     inkscape:cy="16"
     inkscape:window-x="1728"
     inkscape:window-y="80"
     inkscape:window-maximized="0"
     inkscape:current-layer="svg14" />
  <path
     d="M17.0525 14.6255V14.582C17.0434 14.5967 17.0338 14.6114 17.0242 14.6255H17.0525Z"
     fill="black"
     id="path10" />
  <path
     d="M27.8864 1.96289H4.11199C2.97407 1.96289 2.05121 2.86374 2.05121 3.974V28.0266C2.05121 29.1363 2.97407 30.0372 4.11199 30.0372H27.8864C29.026 30.0372 29.9488 29.1358 29.9488 28.0266V3.974C29.9488 2.86318 29.0254 1.96289 27.8864 1.96289ZM10.5071 25.4646H6.29357V12.7878H10.5071V25.4646ZM8.40063 11.0561H8.37241C6.95904 11.0561 6.04465 10.0824 6.04465 8.86604C6.04465 7.62257 6.98727 6.67599 8.42829 6.67599C9.86988 6.67599 10.7566 7.62257 10.7848 8.86604C10.7848 10.0824 9.86932 11.0561 8.40063 11.0561ZM25.7014 25.4646H21.4878V18.6811C21.4878 16.9777 20.8782 15.8149 19.3537 15.8149C18.1898 15.8149 17.4966 16.5989 17.1913 17.3564C17.0801 17.6268 17.053 18.0049 17.053 18.3842V25.4641H12.8394C12.8394 25.4641 12.8947 13.9754 12.8394 12.7872H17.053V14.5816C17.6129 13.718 18.6142 12.4881 20.8511 12.4881C23.6231 12.4881 25.702 14.3005 25.702 18.1946V25.4646H25.7014Z"
     fill="black"
     id="path12"
     style="fill:#ffffff" />
</svg>
